<svg xmlns="http://www.w3.org/2000/svg" id="d476b52c-a1a9-42a0-8df8-4fc90c33fab6" data-name="Objects" viewBox="0 0 393.35 255">
	<path class="yellow" d="M166,109.64L181.1,94.5a3.5,3.5,0,0,0-5-5L161,104.69,145.87,89.55a3.5,3.5,0,0,0-5,5l15.14,15.14-15.14,15.14a3.5,3.5,0,0,0,5,5L161,114.59l15.14,15.14a3.5,3.5,0,0,0,5-5Z" />
	<path class="yellow" d="M250.51,109.64L265.65,94.5a3.5,3.5,0,1,0-4.95-5l-15.14,15.14L230.42,89.55a3.5,3.5,0,0,0-4.95,5l15.14,15.14-15.14,15.14a3.5,3.5,0,1,0,4.95,5l15.14-15.14,15.14,15.14a3.5,3.5,0,0,0,4.95-5Z" />
	<path class="yellow" d="M267.5,152h-124a3.5,3.5,0,0,0,0,7h77v14.08c0,11.44,10.65,21.92,22.08,21.92h0.18c11.43,0,19.74-10.49,19.74-21.92V159h5A3.5,3.5,0,0,0,267.5,152Zm-12,21.08c0,7.58-5.16,14.92-12.74,14.92h-0.18c-7.58,0-15.08-7.35-15.08-14.92V160h10v16a3.5,3.5,0,0,0,7,0V160h11v13.08Z" />
	<path class="yellow" d="M205.5,240.63A103.63,103.63,0,1,1,309.13,137,103.75,103.75,0,0,1,205.5,240.63Zm0-200.27A96.63,96.63,0,1,0,302.13,137,96.74,96.74,0,0,0,205.5,40.37Z" />
	<path class="grey" d="M85,107.24H12a2.5,2.5,0,0,1-2.5-2.34v-0.19c0-.29,0-0.57,0-0.86A16.52,16.52,0,0,1,31.34,88.19a22.28,22.28,0,0,1,38.38-.83,16.52,16.52,0,0,1,17.85,16.48c0,0.29,0,.58,0,0.86v0.19A2.5,2.5,0,0,1,85,107.24Zm-70.42-5H82.46a11.51,11.51,0,0,0-13.61-9.72,2.5,2.5,0,0,1-2.69-1.31,17.28,17.28,0,0,0-31.31,1.18,2.5,2.5,0,0,1-3.47,1.24A11.4,11.4,0,0,0,26,92.31,11.56,11.56,0,0,0,14.61,102.24Z" />
	<path class="grey" d="M378.37,46h-76.9a2.5,2.5,0,0,1-2.5-2.65,16.55,16.55,0,0,1,15.56-15.5,22.53,22.53,0,0,1,32.73-8,22,22,0,0,1,11.95-3.49,22.22,22.22,0,0,1,21.58,27.8A2.5,2.5,0,0,1,378.37,46Zm-73.93-5h71.88a16.44,16.44,0,0,0,.18-2.39,17.31,17.31,0,0,0-17.29-17.29,17.11,17.11,0,0,0-10.48,3.57,2.5,2.5,0,0,1-3.11-.06,17.53,17.53,0,0,0-27.23,6.53,2.53,2.53,0,0,1-2.41,1.5l-0.28,0h-0.24A11.55,11.55,0,0,0,304.44,41Z" />
</svg>
